<?xml version="1.0" encoding="utf-8"?>
<svg xmlns="http://www.w3.org/2000/svg" width="480" height="480" viewBox="0 0 512 512">
  <path fill="#FCBF95" d="M387.4 452.1c-3.1-.8-6.7-1.7-10.4-3 .1 1.4.7 2.8 1.9 4 2 2 4.3 3.8 6.7 5.3 4.7 3 9.6 5.8 14.7 8.1 9.6 4.3 17.6-2.6 21.5-11.1C410.6 456.9 398.1 454.8 387.4 452.1zM185 94.8c.5-3.9-16.5-4.8-18.9-4.9-8.3-.3-16.5 0-24.7 1.4-19.9 3.3-43.4 11.1-55.3 28.6-3 4.4-4.6 8.7-4.5 14 .1 2.2.2 4.4.3 6.7.3.4.6.9.7 1.5 1.7 5.5 7.4 7.9 11.6 11.3 4.4 3.6 7.4 8.1 7.7 14 .3 6.4-9.7 7.2-10 .8-.1-2.3-1.1-4.1-2.5-5.6-.4.1-.7.2-1.2.2-2.9.2-6.2 5-7.6 7.3-1.2 2-2.4 4-3.3 6.2-.3.9-.7 3.4-.8 2.9 1.9 6.2-7.6 9.5-9.4 3.3-1.8-6.1 1.9-12.8 5.2-17.7 2.1-3.2 4.8-6.8 8.1-9.2-.8-.6-1.5-1.3-2.2-2-2.6 2.5-6.4 4.1-9.4 5.6-5 2.4-9.2 5-13.2 8.9-9.6 9.5-17.5 21.5-21.2 34.6-2.1 7.1-2.5 13.4-1.5 20.8.1.5.2 1.1.2 1.6 2.2.2 4.4 1.6 4.7 4.4C39 238 51.4 248.5 60.2 245c1.5-.6 2.9-.4 4 .2.6-9 2.4-18.1 5.3-26.7-2-.3-3.7-1.7-3.6-4.4.2-3.8-1.4-7.6-5-9.5-3.3-1.7-7.6-2.3-10 1.3-4.3 6.4 2 15.5 7.3 19.1 5.3 3.6-1.3 11.1-6.6 7.5-10.4-7-18.7-28.7-4.5-36.6 10.4-5.8 23.8-.1 27.7 10.5 7.7-14.7 19.8-26.6 36.4-31.5.6-11.1.8-22.7 5.8-32.7-8.1-7.4-11-17-11.1-28-.1-6.4 9.9-7.2 10-.8.1 8.1 1.5 14.7 6.8 20.3 7.3-9 16.6-16.9 26.7-22.3 5.9-3.1 11.9-5.7 18.4-7.1 4.9-1.1 12.7.1 16.3-3.8.6-.7 1.2-1.3 1.7-2C185.2 97.5 184.8 96.2 185 94.8zM250.4 157.7c0 .4 0 .7.1 1.1.3-.2.5-.4.8-.6C250.8 157.1 250.3 156.4 250.4 157.7zM250.5 158.9C250.5 158.9 250.5 158.8 250.5 158.9c-1.7 1-3.9 1.2-5.9-.4 4.9 4 6.7 3.7 7 2.4C251.1 160.4 250.8 159.7 250.5 158.9zM140.3 353.8c-10.6-2.4-22-7.3-24.1-18.1-4.3-.3-8.4-2.4-12.1-4.9-.1.3-.2.6-.3.9-.9 2.6-2.9 4.5-5.9 4-2.4-.5-4.8-3.3-4-5.9.6-1.7 1.3-3.7 1.7-5.6-5-4.2-9.8-8.8-13.9-13.8-6.6-8-11.1-18-13.9-28.6-8.4 1.5-15.6-.4-23.2-4.6-5.6-3.1-1.2-12.1 4.4-9 5.3 3 10.5 5 16.6 3.9-1-6-1.6-12.1-1.7-17.9-.2.1-.3.1-.5.2-10.7 4.3-23.1-2.3-30.2-11.8-1.7 6.5-4.8 12.6-6.5 19.1-1.7 6.3-3 12.9-3.1 19.5-.1 9.1 1.6 17.2 4.8 25.6 3.4 9.1 7.7 18 13.7 25.7 3.5 4.5 8.1 9.4 13.8 10.8.2-.7.5-1.4 1.1-2 3.3-3.8 7.3-7 10.1-11.2.7-1.1 2.3-3.3 1.2-4.7-1.7-2-4.4-1.2-6.8-1.5-11-1.1-19.1-17.6-17.7-27.3.9-6.4 10.8-4.5 9.8 1.9-.6 4.3 4.5 15.5 9.9 15.6 5.9 0 11.6 1.8 14.2 7.7 4.4 9.9-6.1 18.3-12.2 25 .3.6.4 1.2.4 1.9.2.1.5.3.8.5 1.5.8 3 1.6 4.6 2.2 2.5 1.1 5.1 2.1 7.7 2.8 9.9 2.9 20.3 4.1 30.6 4.3 11.7.2 23.6.4 35.2-1.3 2.6-.4 5.1-.9 7.6-1.5C148.5 355.4 144.4 354.8 140.3 353.8z" />
  <path fill="#FCBF95" d="M486.5,298.5c-0.2-3.6-0.4-7.4-1.3-10.9c-0.3-1-0.5-2.1-0.9-3.1c-2.3-0.8-3.4-3.1-3.3-5.3c-0.9-0.5-1.6-1.4-1.9-2.7c-1.3-5.3-11.1-9.4-16-11.1c-5.6-1.9-13.6-4-18.8,0c-5.4,4.2-8,13.8-2.4,19c2.8,2.6,6.5,4.6,10.5,4.4c1.2-0.1,2.4-0.2,3.6-0.6c-4.4-3.8,2-10.7,7.1-7.2c4.9,3.5,6.6,9.9,1.2,14c-4.5,3.5-11.1,4.5-16.7,3.3c-13.1-3-21.7-15.1-17.8-28.5c3.6-12.3,14.9-17.9,26.8-16.3c0.2-0.7,0.7-1.4,1.4-2c5.3-4.7,6.3-11.8,9.3-17.9c2.8-5.8,11.7-1.4,9,4.4c-3,6.3-4.4,13.1-9.1,18.4c3.1,1.2,6,2.6,9,4.3c1.8,1,3.7,2.1,5.4,3.4c0.1,0,0.2-0.1,0.3-0.1c0.2-0.8,0.3-1.5,0.4-2.3c0.3-2.8,0.4-5.7,0.3-8.6c-0.2-5.9-0.6-11.8-1.4-17.7c-1.2-8.7-6.3-16.7-10.7-24.1c-5.4-9.1-9-18.1-12-28.2c-6.3-21.1-13.2-41.8-31.4-55.8c-7.4-5.7-16.1-9.7-25.2-11.8c-3.7-0.8-7.6-1.2-11.4-1.8c-9,3.3-13.9,16.7-16.1,24.9c-1.6,5.7-2.4,11.6-3.7,17.3c-1.2,5.6-4.4,15.6,0.7,20.2c8.9,8,29.2,8.4,38.6,1c5.7-4.5,7.9-12.1,7.1-19.2c-0.4-4-1.9-8.4-5.9-10.2c-2.7-1.2-5.2-2-7.6-1.6c-0.3,2-1.7,3.8-4.4,3.8h-2c-2.6,0-5.4-1.7-5.4-4.6c0-12.5,19.5-10.4,26.3-5.1c8.8,6.9,11,19.5,7.8,30c-0.3,1-0.7,1.9-1,2.8c14.7,1,30.1,10.7,33,25.6c0.5,2.5-2.1,5.4-4.6,5.4h-2c-4.6,0-6.3-5.1-4.5-8c-0.9-1.9-2.2-3.5-3.7-5c-4.9,14.7-4.6,31-15.4,43.4c-4.2,4.9-11.8-1.7-7.5-6.6c10-11.4,9.5-28.3,14.3-42.2c-4.4-1.8-9.2-2.7-13.1-2.5c-1.1,0.1-2-0.2-2.7-0.6c-10.3,10.1-27.5,12.1-41.7,7.6c-9.7-3-18.1-9.6-18-20.6c0.1-9.6,2.5-19.5,4.7-28.8c2.3-9.6,6.8-23,14.9-30.9c-0.3-0.2-0.5-0.3-0.8-0.5c-5.9-4.2-10.5-10-16.2-14.4c-4.6-3.6-9.5-7-15.1-9c-4.9-1.8-10.3-2.8-15.6-2.7c3.3,5.3,5.1,11.9,5.1,17.8c0,5.4-0.7,11.4-2.9,16.6c9.8,5.5,22.7,16.2,14.5,23.9c-4.4,4.2-11.5-1.5-8.1-5.9c-0.2-0.4-0.5-0.8-0.6-0.9c-1.7-1.8-3.6-3.5-5.6-4.9c-1.9-1.4-3.8-2.6-5.8-3.8c-2.1,2.1-4.5,3.9-6.8,5.8c-2.4,2-5.6,4.1-5.9,7.4c-0.5,6.4-10.3,4.4-9.8-1.9c0.5-6.1,5.7-10.3,10.1-13.8c1.8-1.5,3.6-3,5-4.6c0.1-2.1,1.3-4.2,3.3-4.6c1.2-2.3,2-4.8,2.3-7.8c0.6-6.2-0.6-17.5-6.4-21.7c-4.1,0.5-8.2,0.6-11.8-1c-6.3-2.8-11.3-7.8-18.1-9.6c-7-1.9-14.2-3-21.5-2.9c-14.4,0.1-28.8,2.9-42.1,8.5c-6.9,2.9-13.6,6.4-19.7,10.8c-2.8,2-4.7,4.5-6.6,7c2.7,1.5,4.1,6.2,0.9,9c-1.3,1.1-0.2,6.1,0.3,7.5c1.2,3.2,3.6,5.4,6.6,6.9c6.1,3.1,12.8,5.6,19.6,6.7c13.4,2.1,31.2,0.1,40.5-11.1c3.6-4.4,7.4-10.8,6.7-16.7c-0.6-5-3.7-6.3-7.9-6.6c-4.4-0.3-9.2,0-13.4,1.1c-1.9,0.5-4.1,1-5.8,2.2c-0.3,0.2-0.4,0.3-0.5,0.4c1.9,6.1-7.4,9.3-9.5,3.2C231.9,83.8,258,82,267.4,82.6c7.7,0.5,13.9,4.6,16.2,12.3c2.4,8.4-1.5,18-6.4,24.8c-3.3,4.5-7.5,8.1-12.3,10.9c6.5,3.3,12.7,7.9,16.8,13.5c6.4,8.7,4.6,20.2-5.8,24.9c-9,4-25.9,7-32.7-2.4c-2.6-3.6-4.1-9-2.1-13.3c1.9-4.1,6.5-5.1,10-2.3c2.7,2.2,2,5.3,0.1,7.2c0.3,0.9,0.6,2,0.4,2.8c0.2,0.2,0.4,0.3,0.6,0.5c2.2,1.5,5.7,1.2,8.2,1c4.6-0.4,14.9-1.1,15.5-7.4c0.4-4.7-6-9.3-9.3-11.6c-4.2-3-9-5.5-13.9-7.2c-0.3-0.1-0.5-0.2-0.8-0.3c-10.7,2.7-22.4,2.5-32.4-0.4c-8.6-2.5-20.8-5.9-25.8-14.2c-2.2-3.8-3.6-8.5-3.4-13c-3,2.4-6.3,4-10.5,4.5c-6,0.7-11.7,1.2-17.4,3.4c-12.5,5-24,13.5-32.3,24.1c-9.1,11.5-8.3,25.5-9.3,39.4c-0.2,2.4-2.5,3.6-4.5,4C86.4,190,73.1,225.8,74,253.2c0.6,16.9,4.1,37.1,15.1,50.5c4.1,4.9,8.7,9.4,13.6,13.4c0,0,0.1,0.1,0.1,0.1c1.1,0.4,2,1.2,2.6,2.2c2.2,1.9,4.8,3.9,7.4,5.2c0.7-1.1,1.9-1.9,3.8-1.8c0.6,0,1.2,0,1.8,0.1c-0.1-0.1-0.1-0.3-0.2-0.4c-4.5-13.5-0.1-28.3,9-39c4.2-4.9,11.7,1.7,7.5,6.6c-6.7,7.9-10.4,18.9-7,29c0.3,1.1,0.4,2,0.1,2.9c11.8-2.1,23.9-8.3,30.4-17.5c3.7-5.3,11.2,1.4,7.5,6.6c-8.2,11.7-24.8,19.6-39.8,21.4c0,0.1,0,0.2,0,0.3c-0.6,9.5,17.3,11.7,23.5,12.6c10.3,1.4,20.5,1.4,30.9,1.5c7.4,0,14.8,0,22.2-0.2c-12.8-12.5-25.3-28.9-17-47.1c2.7-5.9,11.7-1.4,9,4.4c-7.2,15.6,9.4,30.6,19.8,40c0.7,0.6,1.1,1.3,1.4,2c2.4-0.2,4.9-0.4,7.3-0.6c1.2-0.7,2.6-1,3.9-0.5c1.4-0.2,2.7-0.4,4.1-0.7c1.8-0.4,3.7-0.8,5.4-1.5c-0.1-0.2-0.3-0.4-0.4-0.6c-4.3-7.1-5.2-15.6-3.6-23.8c0.6-3,1.4-6.1,2.4-9.1c-0.4,0.2-0.9,0.3-1.4,0.4c-8.8,1.4-18.7,3.8-26.8-1.5c-7.7-5.1-11.6-15.5-14.4-23.9c-3.3-9.9-6-20.7-5.7-31.1c0.2-8.2,1.8-16.9,9.6-21.3c13.8-7.8,33.9,3.7,37,18.4c1.4,6.8,0.8,16.4-4.6,21.5c-6.3,6-13.8,4-19.8-1.4c-1.5-1.3-2.4-4.1-1.2-6c0.1-0.1,0.2-0.3,0.3-0.4c1.2-1.7,3.1-3.4,5.4-2.7c0.6,0.2,1.1,0.3,1.7,0.4c2,0.5,3.2,1.8,3.6,3.3c2,0.7,3.5-0.1,4.4-3.6c1.1-4.4,1.2-9.6-1.5-13.5c-4.4-6.4-21.4-14.5-24.2-2.3c-3.1,13.4,1.4,29.1,6.6,41.4c2,4.9,4.9,12.7,10.7,13.9c5.9,1.3,12.2-0.4,18-1.3c2.4-0.4,4.1,0.8,4.8,2.6c1.9-4.6,4.1-9,6.4-13.2c2.8-4.9,5.9-9,10-12.9c2.6-2.5,5.4-4.9,7.7-7.7c-4.5-4.5-8.2-10.3-8.1-16.7c0.1-6.8,3.1-12.9,7.8-17.8c11-11.5,26.6-18.5,41.4-23.8c7.1-2.5,14.5-4.7,22-6.3c-0.3-1-0.4-2.2,0.1-3.5c2.7-7.5,8-14,5.9-22.3c-1.5-5.9-4.2-12.2-3.4-18.4c0.8-6.4,10.6-4.5,9.8,1.9c-0.4,3,1.2,6.5,2,9.3c1,3.6,2.2,7.5,2.2,11.2c-0.1,7.4-3.8,13.4-6.5,20c5.4-0.7,10.9-1.1,16.4-1.1c19.7,0,41.5,4.5,53.2,21.8c3.6,5.3-4.7,10.9-8.3,5.6c-10-14.8-30.1-17.9-46.8-17.4c-14.2,0.5-27.4,3.1-40.7,7.6c-12.9,4.4-26.5,10-37,19c-3.7,3.1-7.6,7.4-8.2,12.4c-0.6,5.1,3,9.3,6.6,12.6c4.3-7.5,14.1-10.8,21.5-14.1c5-2.2,9.9-4.7,15.1-6.5c6.6-2.3,13.3-4.4,19.8-7.2c5.9-2.6,9.2,6.9,3.3,9.4c-10.4,4.5-21.2,7.7-31.6,12.2c-5.7,2.5-16.6,5.2-19.6,11.3c-1.4,2.7-4,3.1-6.2,2.3c-4.9,7.7-13.2,12.5-17.7,20.2c-4.7,8-9.1,16.8-11.4,25.8c-0.4,1.5-0.8,3.1-1,4.8c1.4-4.6,4.1-8.8,7-12.7c4.6-6.2,9.6-12,15.3-17.1c12.9-11.7,28.4-18.9,44.6-24.8c7.7-2.8,15.4-5.6,22.2-10.1c7.4-4.9,13.1-11.5,19.9-17c5.6-4.5,11.7-7.5,18.2-10.4c4-1.8,12.4-2.4,10.6,4.8c-0.8,3-3.5,4.1-5.9,3.8c-3,0.7-8.2,3.8-10.3,5.1c-6.5,4.1-11.5,9.5-17.2,14.6c-10.3,9.2-22.8,14.9-35.8,19.3c-13.9,4.7-27.4,11.4-38.5,21.2c-5.2,4.5-9.7,9.7-13.9,15.1c-3.4,4.4-7.6,9.8-7.3,15.6c0.3,5.2-6,6.7-8.7,3.8c0.4,1.6,1.1,3,2,4.4c2.2,3.1,5.3,5.4,8.8,6.9c-0.2-0.9,0-1.9,0.5-2.9c12-25.4,40.9-38.2,66.3-45.9c7.5-2.3,15.2-4.4,22.3-7.7c7.7-3.5,12.8-8.3,18.5-14.3c10.3-10.8,21.2-20,34.7-26.5c4.7-2.3,8.4,4.4,5.5,7.9c-0.9,2.8-3.6,3.9-5.9,3.5c-12,6.7-21.7,16.2-31,26.3c-9.9,10.7-24.3,15.3-37.9,19.4c-23.8,7.2-52.2,17.7-63.6,41.8c-0.2,0.4-0.4,0.8-0.7,1.1c6.7,1.3,13.4,1.6,20.2,1.6c-1.4-8.4,20.2-20.3,24.4-22.1c16.1-7.1,34.4-8.1,49.9-16.9c6.8-3.9,13-8.7,18-14.9c3.7-4.5,6.4-9.6,9.8-14.3c3.6-5,17-22.3,23.1-10.6c2.6,5-3.4,9.9-7,7.2c-0.2,0.2-0.4,0.3-0.6,0.5c-1.6,1.4-3,3.1-4.3,4.7c-2.4,2.9-4.8,5.9-6.6,9.3c-5.7,10.9-16.1,20.5-26.9,26.4c-12.8,7-26.5,9.6-40.2,13.8c-7.1,2.1-14.3,4.7-20.3,9.2c-1.9,1.4-3.7,2.9-5.5,4.4c-0.9,0.7-1.8,1.3-2.6,2.1c0.1,0.3,0.1,0.6,0.1,1c3.5-0.2,7-0.4,10.5-0.7c5.7-0.4,11.5-1.2,17.1-2.5c2.4-0.6,8-1.6,11-3.2c0.1-0.9,0.6-1.7,1.5-2.5c8.3-7.4,21.3-9.4,31.6-13c10.1-3.6,19.9-7.3,30.7-7.8c15.7-0.7,33.2,4.3,37.5,21c4.7-6.9,11.6-12.7,17.9-16.4c11.3-6.8,27.7-9.1,31.9,6.9c1.6,6.2-7.8,9.5-9.4,3.3c-4.8-18.1-36.6,11.1-36.3,23c0.1,3.4-2.6,5.2-5.2,5.2c-3.5,10.4-11.1,18.6-23.4,15.3c-8.1-2.2-19.4-11.5-17.1-21.2c1-4.3,3.5-8.2,7.9-9.5c3.3-1,7-0.9,10.2-2.2c6-2.3,9.3,7.1,3.3,9.4c-3.1,1.2-14.9,0.6-10.7,6.8c3,4.5,10.3,10.2,15.7,5.9c8.2-6.4,9.2-24.6,1.4-31.6c-8.4-7.5-21.8-6.9-32.1-4.8c-8.8,1.7-17.3,5.7-25.7,8.5c-5.6,1.9-13.3,3-18.5,6.3c-0.1,0.1-0.1,0.2-0.2,0.4c-3.3,5.5-10.2,7.6-16.1,9c-6.9,1.8-14,3.1-21.1,3.6c-15.8,1-32.8,2.8-48.3-1.3c-4.3-1.1-8.9-2.8-13-5.3c-0.1,0.1-0.3,0.2-0.4,0.2c6.4,4.1,11.9,9.3,18.7,13.3c11.4,6.8,25.1,11.1,38.4,11.5c9.8,0.3,21.1-2.7,30.6,0.4c5.2,1.7,8.2,4.7,11.1,9.2c3.4,5.3,8,8.8,13.2,12.3c1.7-1.7,3.6-3.3,5.2-5.1c0.5-0.5,0.9-1.1,1.3-1.6c-0.1-0.5-0.1-0.9,0-1.4c0.1-1.3-3.3-3.7-4.7-4.5c-2.8-1.6-5.7-2.9-8.6-4.1c-6-2.4-1.5-11.3,4.4-9c4.3,1.7,9.3,4,13.1,7.2c1.2-5.4,2.4-10.4,5.9-15c3.9-5.1,11.4,1.5,7.5,6.6c-4.1,5.4-4.2,13.8-6.4,20.2c-2.1,6.1-7,9.9-11.3,14.4c2.4,5,2.9,11.1,2.8,17c0,0.8,0,1.6,0,2.4c5.6-3.3,12-7.5,14.7-13.3c2.3-5.1,3.3-11.4,7.6-15.2c4.8-4.2,12.3,2.3,7.5,6.6c-4.4,3.9-4.6,11.2-8,16c-4.6,6.5-11.1,11.2-17.9,15.2c1,0.9,2.2,1.8,3.6,2.5c4.8,2.7,9.9,4.7,15.2,6.1c7.6,1.9,15.4,3.2,23.3,3.7c5.9,0.4,11.7,0.5,17.3-1.8c8.6-3.6,15.7-10.1,21.7-17.8c0,0.1-0.1,0.1-0.1,0.2c-6.3,6.3-14.8,4.8-22.4,1.9c-4.1-1.6-8.1-3.5-12.2-5.1c-2.2-0.8-5.2-2.2-7.5-1.4c-6.1,2.3-9.3-7.2-3.3-9.4c6.7-2.5,14.2,1.3,20.3,3.9c3.9,1.7,13.7,7.4,17.6,3.5c4.2-4.2,11,1.2,8.3,5.6c4.5-6,8.3-12.6,11.6-19.2c-0.6,0.1-1.3,0-2.1-0.2c-10.2-3-21-5.8-31.7-4.9c-6.4,0.5-7.2-9.5-0.8-10c11.6-0.9,23.3,1.8,34.3,5.1c1.8,0.5,2.9,1.8,3.4,3.2c1.1-2.5,2.2-5,3.2-7.3c1.4-3.2,2.7-6.4,4-9.6c-0.1-0.2-0.2-0.5-0.3-0.7c0.4,1.3-1.9-0.4-3.1-0.7c-2.8-0.7-5.6-1.3-8.5-1.7c-4.7-0.7-9.6-1.2-14.4-1.3c-6.4-0.1-7.2-10-0.8-10c6.8,0.1,13.7,0.7,20.4,2c3,0.6,7,1.2,10.2,2.8c5.7-15.8,9.9-32.2,10.5-48.8C487,315.3,487.1,306.9,486.5,298.5z M294.2,188.7h-12.6c-9.1,0-17.5,5.5-24.9,10.2c-3.2,2-6.9,3.9-10.8,5.4c-0.1,8.2-0.9,16.6-5.5,23.6c-3.5,5.3-12.5,0.9-9-4.4c3.3-5,4.2-10.6,4.4-16.3c-1.6,0.3-3.2,0.5-4.8,0.5c-8.8,0.2-17.4-2.1-26.1-2.1c-5,2.2-10.6,3-16.1,2.3c-7.1-0.9-14-3.6-19.9-7.8c-2,1-4.6,0.8-6.2-1.6c-4.2-6-14.4-7.2-21.1-7c-7.8,0.1-14.9,3.3-20.8,8.3c-10.8,9.1-20.9,27.9-15,42.3c4.3,10.4,18.6,17.4,29.3,12.5c6.2-2.9,8.5-9.8,8.6-16.3c0-3.7,0.4-7.5-3.4-9.1c-2.1-0.9-4.6-1.2-6.3-2.6c-2.9-2.3-1.9-7.5,1.6-8.5c0.6-0.2,1.2-0.3,1.9-0.3c0.8,0,1.4,0.1,2,0.3c0,0,0,0,0.1,0c0.2,0.1,0.4,0.2,0.6,0.3c0.4,0.2,0.9,0.5,1.4,0.6c1.1,0.4,2.2,0.7,3.2,1.2c2,1,3.9,2.1,5.4,3.8c3.5,3.9,3.7,10,3.5,15c-0.5,9.8-4.1,19.3-13.2,24.1c-10.3,5.4-23.3,3.2-32.7-3.5c-4.5,3.2-15,11.3-11.7,16.4c3.5,5.4-4.8,11-8.3,5.6c-7.1-10.8,3.8-22.4,12.7-29c-1.2-1.6-2.3-3.4-3.2-5.2c-8.8-18.9,2.9-43.7,18-55.7c8.5-6.8,18.4-10.5,29.3-9.9c3.7,0.2,7.7,0.7,11.5,1.7c-1.1-3.2-1.8-6.5-2.5-9.7c-2.6-12.9-2.8-36.3,15.9-36c6.4,0.1,7.2,10.1,0.8,10c-11.2-0.2-8.3,18-6.7,24.9c1.1,4.6,2.3,10,5.2,13.9c4.3,5.8,12.5,10,19.5,11.2c2.8,0.5,5.9,0.5,8.8,0c0.7-1,1.9-1.8,3.5-1.9c0.7-0.1,1.3-0.1,2-0.1c2-1.2,3.7-2.9,4.9-5.2c3.2-6.2,4.4-13.6,3.7-20.6c-0.6-6.7-2.9-14-9.9-16.6c-2.7-1-7.2-1.2-9.3,1.2c-2.2,2.6,1.3,5,3.2,6.5c5.1,4-1.5,11.5-6.6,7.5c-5.6-4.4-9.5-11.1-5.9-18.1c4.6-9,17.6-9.3,25.3-4.9c8.5,4.9,12.5,14.2,13.1,23.6c0.6,9.2-0.8,19.4-5.7,27.4c0,0.1-0.1,0.1-0.1,0.2c5.5,0.8,11.1,1.6,16.6,0.9c9.6-1.2,18-6.7,26.3-11.3c7.2-4,15-7.5,23.3-7.5h12C299.9,178.8,300.7,188.7,294.2,188.7z" />
  <path fill="#010101" d="M251.3,158.2c-0.2,0.2-0.5,0.4-0.8,0.6c0,0,0,0.1,0,0.1c0.3,0.8,0.6,1.5,1.1,2C251.9,160.2,251.6,159,251.3,158.2z" />
  <path fill="#010101" d="M496.6,298.7c-0.3-6.2-0.4-20.6-7.8-23.4c0.1-0.7,0.1-1.4-0.1-2.2c0-0.2-0.1-0.3-0.1-0.5c6.5-5.9,4-27.3,3.5-32.8c-0.8-8.9-3.3-16.5-7.5-24.5c-2.9-5.6-6.3-10.8-9.3-16.3c-3.3-6-5.1-12.7-7.1-19.3c-3.8-12.8-7.6-25.5-14.3-37.1c-6.1-10.6-15.2-20.2-25.4-26.8c-9.2-5.9-19.4-9.4-30.1-11.3c-0.9-0.9-2.1-1.6-3.7-1.6c-1.5,0-3,0.1-4.4,0.4c-2.7-0.5-5.2-1.3-7.8-3.2c-5.8-4.5-10.6-10.3-16.6-14.8c-10-7.6-21.1-11.8-33.6-12.3c-3.8-0.2-7.4,0.6-11.2,1.1c-2.5-1-5.4-1.5-8.5-1.2c-0.9,0.1-1.6,0.4-2.2,0.8c-2.1-1-4.1-2.6-5.8-3.8c-3-2-6.1-3.8-9.6-4.9c-27.3-8.7-57.6-3-82.6,9.8c-5.8,3-11.5,6.5-16.3,10.9c-1,0.9-1.9,1.9-2.8,3c-6-8.9-25.2-8.8-34.1-8.8c-19.9,0-40.2,5.1-57.8,14.4c-8.7,4.6-16.8,11-22.6,19.1c-2.7,3.8-4.8,8-6.2,12.4c-1.7,5.5-0.4,11.9-0.5,17.6c0,1.2-0.2,2.4-0.5,3.5c0.3-1.4-0.6,0-1.3,0.5c-2.1,1.4-4.5,2.4-6.8,3.5c-5.3,2.5-9.6,5.6-13.9,9.5c-9.8,8.9-17.3,20.7-22.2,33c-3.6,8.9-5.6,18-4.6,27.6c0.5,4.8,1.4,9.5,1.6,14.3c0.2,5.1-2.1,9.6-3.8,14.2c-5.7,15.6-8.7,32.5-5,48.9c3,13.1,8.9,26.1,16.5,37.2c5.7,8.3,14.2,17,24.6,18.2c5.9,9.1,33.3,13.3,38.7,14c13.6,1.6,27.7,1.5,41.3,0.6c6.6-0.4,13.1-1.5,19.5-2.9c6.6-1.5,12.3-5.3,19.2-5.6c2.3-0.1,3.6-1.4,4.2-3c0.1,0,0.2,0,0.3,0c11.7,0,23.3,0,35-0.7c2.4-0.2,4.9-0.4,7.3-0.6c2.5-0.4,5-0.7,7.5-1.1c0.4,0.3,0.9,0.5,1.4,0.6c10.8,3.2,18.6,12.6,28.2,18.2c10.7,6.3,23.6,10.1,35.9,11.4c10.3,1.1,20.7-1.2,30.9,0c4.9,0.6,6.7,3.4,9.1,7.2c-0.5-0.1-0.9-0.2-1.4-0.3c-0.1,0-0.1,0-0.2,0c0.3,0.5,0.6,0.9,0.8,1.4c0.4-0.2,0.9-0.3,1.3-0.2c0,0,0.1,0.1,0.1,0.1c3.5,5.3,9.1,8.9,14.2,12.4c0.1,0.1,0.2,0.1,0.3,0.2c0,0.2,0.1,0.3,0.1,0.5c0.7,0.4,1.3,0.9,1.8,1.5c2.6,3.1,2.7,8.4,2.7,12.2c-0.1,6.5,0.1,11.3,3.4,17c2,3.5,5.3,6.2,9.1,8.4c-1,7.7,1.9,13.6,8.4,18.8c6.3,5,13.7,8.9,21,12.2c17.2,7.8,32.9-7.4,36.6-23.5c8-3.6,14.8-9.8,20.4-16.3c11.3-13,19.2-29,25.7-44.8c7.7-18.5,14.6-38.6,16.5-58.6C497.1,321.5,497.2,310,496.6,298.7z M34.4,202.6c3.8-13.1,11.6-25.1,21.2-34.6c4-3.9,8.2-6.5,13.2-8.9c3-1.4,6.8-3,9.4-5.6c0.7,0.7,1.4,1.3,2.2,2c-3.3,2.4-6,6-8.1,9.2c-3.2,4.9-7,11.6-5.2,17.7c1.9,6.2,11.3,2.9,9.4-3.3c0.2,0.6,0.5-2,0.8-2.9c0.8-2.2,2-4.2,3.3-6.2c1.4-2.3,4.6-7.1,7.6-7.3c0.4,0,0.8-0.1,1.2-0.2c1.4,1.5,2.4,3.3,2.5,5.6c0.3,6.4,10.2,5.7,10-0.8c-0.2-5.8-3.2-10.3-7.7-14c-4.2-3.4-9.9-5.8-11.6-11.3c-0.2-0.6-0.4-1.1-0.7-1.5c0-2.3-0.2-4.5-0.3-6.7c-0.2-5.3,1.5-9.6,4.5-14c11.8-17.5,35.4-25.4,55.3-28.6c8.2-1.3,16.4-1.7,24.7-1.4c2.4,0.1,19.4,1,18.9,4.9c-0.2,1.5,0.2,2.7,0.9,3.6c-0.6,0.7-1.1,1.4-1.7,2c-3.7,3.9-11.4,2.8-16.3,3.8c-6.5,1.4-12.5,4-18.4,7.1c-10.2,5.4-19.5,13.2-26.7,22.3c-5.3-5.6-6.7-12.2-6.8-20.3c-0.1-6.4-10-5.7-10,0.8c0.1,11.1,3,20.6,11.1,28c-5,10-5.2,21.6-5.8,32.7c-16.6,4.9-28.7,16.8-36.4,31.5c-3.9-10.5-17.2-16.2-27.7-10.5c-14.2,7.9-5.9,29.6,4.5,36.6c5.3,3.6,11.9-3.9,6.6-7.5c-5.3-3.5-11.6-12.7-7.3-19.1c2.4-3.6,6.7-3,10-1.3c3.6,1.8,5.2,5.6,5,9.5c-0.1,2.7,1.6,4.1,3.6,4.4c-3,8.6-4.7,17.7-5.3,26.7c-1.1-0.6-2.4-0.8-4-0.2c-8.8,3.5-21.2-7-22.4-15.7c-0.4-2.8-2.5-4.2-4.7-4.4c-0.1-0.5-0.2-1.1-0.2-1.6C31.9,216,32.3,209.7,34.4,202.6z M145,357.3c-11.6,1.8-23.5,1.6-35.2,1.3c-10.3-0.2-20.7-1.4-30.6-4.3c-2.6-0.8-5.2-1.8-7.7-2.8c-1.6-0.7-3.1-1.4-4.6-2.2c-0.4-0.2-0.6-0.4-0.8-0.5c0-0.7-0.1-1.3-0.4-1.9c6.1-6.7,16.6-15,12.2-25c-2.6-5.9-8.3-7.7-14.2-7.7c-5.4,0-10.5-11.3-9.9-15.6c0.9-6.4-8.9-8.3-9.8-1.9c-1.4,9.8,6.7,26.2,17.7,27.3c2.4,0.2,5.1-0.6,6.8,1.5c1.1,1.3-0.5,3.6-1.2,4.7c-2.8,4.2-6.8,7.4-10.1,11.2c-0.6,0.6-0.9,1.3-1.1,2c-5.7-1.4-10.3-6.3-13.8-10.8c-6-7.7-10.3-16.6-13.7-25.7c-3.2-8.5-4.9-16.6-4.8-25.6c0.1-6.6,1.4-13.1,3.1-19.5c1.7-6.5,4.8-12.6,6.5-19.1c7,9.5,19.5,16,30.2,11.8c0.2-0.1,0.3-0.1,0.5-0.2c0.1,5.8,0.7,11.8,1.7,17.9c-6.1,1.2-11.3-0.9-16.6-3.9c-5.6-3.2-10.1,5.8-4.4,9c7.5,4.2,14.8,6,23.2,4.6c2.8,10.5,7.3,20.6,13.9,28.6c4.2,5,8.9,9.6,13.9,13.8c-0.4,1.9-1.1,3.8-1.7,5.6c-0.9,2.6,1.5,5.4,4,5.9c2.9,0.6,5-1.4,5.9-4c0.1-0.3,0.2-0.6,0.3-0.9c3.7,2.5,7.9,4.6,12.1,4.9c2,10.9,13.5,15.7,24.1,18.1c4,0.9,8.1,1.6,12.3,2C150.1,356.4,147.6,356.9,145,357.3z M400.4,466.5c-5.1-2.3-10-5.1-14.7-8.1c-2.4-1.5-4.6-3.3-6.7-5.3c-1.3-1.3-1.8-2.6-1.9-4c3.7,1.2,7.3,2.2,10.4,3c10.7,2.7,23.2,4.8,34.5,3.4C418,463.9,410,470.8,400.4,466.5z M486.6,323.7c-0.7,16.6-4.9,33-10.5,48.8c-3.3-1.5-7.2-2.2-10.2-2.8c-6.7-1.3-13.6-1.9-20.4-2c-6.4-0.1-5.6,9.9,0.8,10c4.8,0,9.6,0.6,14.4,1.3c2.9,0.4,5.7,1,8.5,1.7c1.2,0.3,3.5,2,3.1,0.7c0.1,0.3,0.2,0.5,0.3,0.7c-1.3,3.2-2.6,6.4-4,9.6c-1,2.4-2.1,4.8-3.2,7.3c-0.5-1.4-1.6-2.7-3.4-3.2c-11.1-3.3-22.7-6-34.3-5.1c-6.4,0.5-5.7,10.5,0.8,10c10.7-0.9,21.5,1.9,31.7,4.9c0.8,0.2,1.5,0.3,2.1,0.2c-3.3,6.6-7.1,13.3-11.6,19.2c2.8-4.5-4.1-9.9-8.3-5.6c-3.9,3.9-13.7-1.8-17.6-3.5c-6.1-2.6-13.6-6.5-20.3-3.9c-6,2.3-2.8,11.7,3.3,9.4c2.3-0.9,5.3,0.5,7.5,1.4c4.1,1.6,8.1,3.5,12.2,5.1c7.6,2.9,16.1,4.5,22.4-1.9c0.1-0.1,0.1-0.1,0.1-0.2c-6,7.7-13.1,14.2-21.7,17.8c-5.6,2.3-11.3,2.2-17.3,1.8c-7.9-0.5-15.7-1.8-23.3-3.7c-5.3-1.3-10.4-3.4-15.2-6.1c-1.4-0.8-2.6-1.6-3.6-2.5c6.8-4,13.3-8.7,17.9-15.2c3.4-4.8,3.6-12.1,8-16c4.8-4.3-2.8-10.8-7.5-6.6c-4.4,3.9-5.3,10.2-7.6,15.2c-2.7,5.8-9.1,10-14.7,13.3c0-0.8-0.1-1.6,0-2.4c0.1-5.9-0.3-12-2.8-17c4.3-4.5,9.3-8.2,11.3-14.4c2.1-6.4,2.2-14.7,6.4-20.2c3.9-5.1-3.6-11.7-7.5-6.6c-3.5,4.6-4.8,9.6-5.9,15c-3.8-3.2-8.8-5.4-13.1-7.2c-6-2.4-10.4,6.6-4.4,9c3,1.2,5.9,2.5,8.6,4.1c1.4,0.8,4.8,3.2,4.7,4.5c0,0.5,0,1,0,1.4c-0.4,0.5-0.8,1.1-1.3,1.6c-1.6,1.8-3.5,3.4-5.2,5.1c-5.1-3.5-9.8-7-13.2-12.3c-2.9-4.6-5.9-7.5-11.1-9.2c-9.5-3.2-20.8-0.2-30.6-0.4c-13.3-0.4-26.9-4.7-38.4-11.5c-6.8-4-12.3-9.2-18.7-13.3c0.1-0.1,0.3-0.2,0.4-0.2c4,2.5,8.6,4.2,13,5.3c15.5,4.1,32.5,2.3,48.3,1.3c7.1-0.5,14.2-1.8,21.1-3.6c5.8-1.5,12.8-3.6,16.1-9c0.1-0.1,0.1-0.2,0.2-0.4c5.2-3.4,13-4.5,18.5-6.3c8.4-2.9,16.9-6.8,25.7-8.5c10.4-2,23.7-2.7,32.1,4.8c7.9,7,6.8,25.2-1.4,31.6c-5.4,4.3-12.7-1.4-15.7-5.9c-4.1-6.2,7.6-5.6,10.7-6.8c6-2.3,2.7-11.8-3.3-9.4c-3.2,1.2-6.9,1.1-10.2,2.2c-4.4,1.4-6.9,5.3-7.9,9.5c-2.3,9.6,9,19,17.1,21.2c12.3,3.3,20-4.9,23.4-15.3c2.6-0.1,5.3-1.9,5.2-5.2c-0.3-11.9,31.5-41.1,36.3-23c1.7,6.2,11.1,2.9,9.4-3.3c-4.2-16-20.6-13.7-31.9-6.9c-6.3,3.8-13.1,9.6-17.9,16.4c-4.3-16.7-21.7-21.7-37.5-21c-10.8,0.5-20.6,4.2-30.7,7.8c-10.3,3.6-23.2,5.6-31.6,13c-0.9,0.8-1.3,1.6-1.5,2.5c-3,1.6-8.6,2.6-11,3.2c-5.6,1.3-11.3,2.2-17.1,2.5c-3.5,0.2-7,0.5-10.5,0.7c0-0.3,0-0.6-0.1-1c0.8-0.8,1.7-1.4,2.6-2.1c1.9-1.4,3.7-3,5.5-4.4c6-4.5,13.2-7,20.3-9.2c13.8-4.2,27.5-6.8,40.2-13.8c10.7-5.9,21.1-15.4,26.9-26.4c1.7-3.3,4.2-6.4,6.6-9.3c1.3-1.6,2.7-3.3,4.3-4.7c0.2-0.2,0.4-0.3,0.6-0.5c3.5,2.7,9.6-2.3,7-7.2c-6.1-11.7-19.5,5.6-23.1,10.6c-3.4,4.7-6.1,9.7-9.8,14.3c-5,6.1-11.2,11-18,14.9c-15.4,8.8-33.7,9.9-49.9,16.9c-4.2,1.8-25.8,13.7-24.4,22.1c-6.8,0-13.5-0.4-20.2-1.6c0.3-0.3,0.5-0.7,0.7-1.1c11.4-24.1,39.8-34.6,63.6-41.8c13.6-4.1,27.9-8.7,37.9-19.4c9.3-10.1,19-19.6,31-26.3c2.4,0.4,5-0.6,5.9-3.5c2.9-3.6-0.8-10.2-5.5-7.9c-13.5,6.5-24.4,15.7-34.7,26.5c-5.7,6-10.9,10.8-18.5,14.3c-7.2,3.3-14.8,5.4-22.3,7.7c-25.4,7.7-54.3,20.5-66.3,45.9c-0.5,1-0.6,2-0.5,2.9c-3.5-1.6-6.6-3.8-8.8-6.9c-0.9-1.4-1.6-2.8-2-4.4c2.7,2.9,9,1.4,8.7-3.8c-0.3-5.8,3.9-11.3,7.3-15.6c4.2-5.4,8.7-10.6,13.9-15.1c11.1-9.7,24.6-16.4,38.5-21.2c13-4.4,25.5-10.1,35.8-19.3c5.7-5.1,10.7-10.5,17.2-14.6c2.2-1.4,7.4-4.4,10.3-5.1c2.4,0.4,5.1-0.7,5.9-3.8c1.8-7.2-6.6-6.6-10.6-4.8c-6.5,2.9-12.6,5.9-18.2,10.4c-6.9,5.5-12.5,12.2-19.9,17c-6.8,4.5-14.6,7.4-22.2,10.1c-16.2,5.9-31.6,13.1-44.6,24.8c-5.7,5.1-10.7,11-15.3,17.1c-2.9,3.9-5.5,8.1-7,12.7c0.3-1.7,0.7-3.3,1-4.8c2.4-9,6.7-17.8,11.4-25.8c4.6-7.7,12.9-12.6,17.7-20.2c2.2,0.9,4.8,0.4,6.2-2.3c3-6,13.9-8.7,19.6-11.3c10.4-4.6,21.2-7.8,31.6-12.2c5.9-2.5,2.6-12-3.3-9.4c-6.5,2.8-13.2,4.8-19.8,7.2c-5.2,1.8-10,4.4-15.1,6.5c-7.4,3.2-17.3,6.6-21.5,14.1c-3.6-3.3-7.2-7.5-6.6-12.6c0.6-5,4.5-9.3,8.2-12.4c10.5-9,24-14.6,37-19c13.2-4.6,26.5-7.2,40.7-7.6c16.6-0.5,36.7,2.6,46.8,17.4c3.6,5.3,11.9-0.2,8.3-5.6c-11.8-17.3-33.6-21.8-53.2-21.8c-5.5,0-10.9,0.4-16.4,1.1c2.8-6.6,6.5-12.6,6.5-20c0-3.8-1.2-7.7-2.2-11.2c-0.8-2.8-2.4-6.3-2-9.3c0.8-6.4-9-8.3-9.8-1.9c-0.8,6.2,1.9,12.4,3.4,18.4c2.1,8.4-3.2,14.8-5.9,22.3c-0.5,1.2-0.4,2.4-0.1,3.5c-7.5,1.6-14.9,3.7-22,6.3c-14.8,5.2-30.4,12.3-41.4,23.8c-4.7,4.9-7.7,11-7.8,17.8c-0.1,6.4,3.7,12.2,8.1,16.7c-2.3,2.8-5.1,5.3-7.7,7.7c-4.1,3.9-7.2,8-10,12.9c-2.4,4.2-4.6,8.6-6.4,13.2c-0.7-1.7-2.3-3-4.8-2.6c-5.9,0.9-12.1,2.6-18,1.3c-5.9-1.3-8.7-9-10.7-13.9c-5.2-12.3-9.7-28.1-6.6-41.4c2.8-12.1,19.8-4,24.2,2.3c2.7,3.9,2.6,9.1,1.5,13.5c-0.9,3.5-2.4,4.4-4.4,3.6c-0.5-1.5-1.6-2.9-3.6-3.3c-0.6-0.1-1.1-0.3-1.7-0.4c-2.3-0.7-4.3,0.9-5.4,2.7c-0.1,0.1-0.2,0.3-0.3,0.4c-1.2,1.8-0.3,4.6,1.2,6c6,5.3,13.6,7.4,19.8,1.4c5.3-5.1,6-14.8,4.6-21.5c-3.1-14.7-23.2-26.2-37-18.4c-7.8,4.4-9.4,13.1-9.6,21.3c-0.3,10.5,2.4,21.3,5.7,31.1c2.8,8.4,6.7,18.8,14.4,23.9c8.1,5.3,18,2.9,26.8,1.5c0.5-0.1,1-0.2,1.4-0.4c-1,3-1.8,6-2.4,9.1c-1.6,8.1-0.7,16.6,3.6,23.8c0.1,0.2,0.2,0.4,0.4,0.6c-1.7,0.7-3.6,1.1-5.4,1.5c-1.4,0.3-2.7,0.5-4.1,0.7c-1.3-0.5-2.7-0.2-3.9,0.5c-2.4,0.3-4.9,0.5-7.3,0.6c-0.3-0.7-0.7-1.4-1.4-2c-10.4-9.5-27-24.4-19.8-40c2.7-5.9-6.3-10.3-9-4.4c-8.4,18.2,4.1,34.6,17,47.1c-7.4,0.2-14.8,0.2-22.2,0.2c-10.3,0-20.6-0.1-30.9-1.5c-6.3-0.9-24.1-3.1-23.5-12.6c0-0.1,0-0.2,0-0.3c15-1.7,31.6-9.6,39.8-21.4c3.7-5.2-3.8-11.9-7.5-6.6c-6.5,9.2-18.6,15.4-30.4,17.5c0.2-0.9,0.2-1.8-0.1-2.9c-3.4-10.1,0.3-21.2,7-29c4.2-4.9-3.3-11.5-7.5-6.6c-9.1,10.6-13.4,25.4-9,39c0,0.1,0.1,0.3,0.2,0.4c-0.6,0-1.2,0-1.8-0.1c-1.9-0.1-3.1,0.7-3.8,1.8c-2.6-1.3-5.2-3.4-7.4-5.2c-0.6-1-1.5-1.8-2.6-2.2c0,0-0.1-0.1-0.1-0.1c-4.9-4-9.5-8.5-13.6-13.4c-11-13.3-14.5-33.6-15.1-50.5c-0.9-27.3,12.4-63.2,42.3-69.4c2-0.4,4.4-1.7,4.5-4c1-13.9,0.3-27.9,9.3-39.4c8.3-10.6,19.9-19.1,32.3-24.1c5.7-2.3,11.4-2.7,17.4-3.4c4.2-0.5,7.5-2.1,10.5-4.5c-0.2,4.5,1.2,9.2,3.4,13c4.9,8.3,17.1,11.7,25.8,14.2c10,2.9,21.7,3.2,32.4,0.4c0.2,0.1,0.5,0.2,0.8,0.3c4.9,1.7,9.6,4.2,13.9,7.2c3.3,2.3,9.7,6.9,9.3,11.6c-0.5,6.3-10.9,7-15.5,7.4c-2.5,0.2-6,0.5-8.2-1c-0.2-0.2-0.4-0.3-0.6-0.5c-0.4,1.3-2.1,1.5-7-2.4c2,1.6,4.2,1.4,5.9,0.3c-0.1-0.3-0.1-0.7-0.1-1.1c-0.1-1.3,0.5-0.7,0.9,0.4c2-1.8,2.6-5-0.1-7.2c-3.5-2.8-8.1-1.8-10,2.3c-2,4.3-0.5,9.7,2.1,13.3c6.8,9.4,23.7,6.4,32.7,2.4c10.4-4.6,12.1-16.2,5.8-24.9c-4.1-5.6-10.3-10.2-16.8-13.5c4.8-2.8,9-6.4,12.3-10.9c4.9-6.8,8.8-16.3,6.4-24.8c-2.2-7.8-8.5-11.8-16.2-12.3c-9.4-0.6-35.5,1.2-30.3,16.8c2,6.1,11.4,2.8,9.5-3.2c0.1-0.1,0.3-0.2,0.5-0.4c1.7-1.2,3.9-1.7,5.8-2.2c4.2-1.1,9-1.4,13.4-1.1c4.2,0.3,7.3,1.6,7.9,6.6c0.8,6-3,12.3-6.7,16.7c-9.3,11.2-27.1,13.2-40.5,11.1c-6.7-1.1-13.5-3.6-19.6-6.7c-3-1.5-5.4-3.7-6.6-6.9c-0.5-1.4-1.6-6.4-0.3-7.5c3.2-2.8,1.8-7.4-0.9-9c1.8-2.6,3.8-5,6.6-7c6.1-4.4,12.8-7.9,19.7-10.8c13.3-5.6,27.7-8.4,42.1-8.5c7.3,0,14.5,1.1,21.5,2.9c6.8,1.8,11.8,6.8,18.1,9.6c3.6,1.6,7.7,1.5,11.8,1c5.8,4.2,6.9,15.6,6.4,21.7c-0.3,2.9-1.1,5.5-2.3,7.8c-2.1,0.5-3.3,2.5-3.3,4.6c-1.5,1.6-3.2,3.2-5,4.6c-4.5,3.5-9.6,7.7-10.1,13.8c-0.5,6.4,9.3,8.3,9.8,1.9c0.3-3.4,3.5-5.5,5.9-7.4c2.3-1.9,4.7-3.7,6.8-5.8c2,1.1,3.9,2.4,5.8,3.8c2,1.5,3.9,3.1,5.6,4.9c0.1,0.1,0.4,0.5,0.6,0.9c-3.3,4.4,3.7,10.1,8.1,5.9c8.2-7.7-4.7-18.4-14.5-23.9c2.2-5.2,2.9-11.1,2.9-16.6c0-5.9-1.8-12.5-5.1-17.8c5.3-0.2,10.7,0.8,15.6,2.7c5.5,2.1,10.5,5.4,15.1,9c5.7,4.5,10.3,10.3,16.2,14.4c0.3,0.2,0.5,0.3,0.8,0.5c-8.1,7.9-12.7,21.3-14.9,30.9c-2.2,9.3-4.6,19.3-4.7,28.8c-0.2,11,8.3,17.6,18,20.6c14.2,4.4,31.4,2.5,41.7-7.6c0.7,0.4,1.6,0.6,2.7,0.6c4-0.2,8.7,0.7,13.1,2.5c-4.8,13.9-4.3,30.8-14.3,42.2c-4.2,4.9,3.3,11.5,7.5,6.6c10.8-12.3,10.5-28.7,15.4-43.4c1.5,1.5,2.8,3.2,3.7,5c-1.8,2.9-0.1,8,4.5,8h2c2.5,0,5.1-2.8,4.6-5.4c-2.9-14.9-18.3-24.6-33-25.6c0.4-0.9,0.7-1.9,1-2.8c3.2-10.4,1.1-23-7.8-30c-6.7-5.3-26.3-7.3-26.3,5.1c0,2.9,2.8,4.6,5.4,4.6h2c2.7,0,4.1-1.8,4.4-3.8c2.4-0.4,4.9,0.5,7.6,1.6c4,1.7,5.4,6.2,5.9,10.2c0.8,7.1-1.4,14.7-7.1,19.2c-9.4,7.4-29.7,7-38.6-1c-5.1-4.6-1.9-14.6-0.7-20.2c1.2-5.8,2.1-11.6,3.7-17.3c2.3-8.2,7.1-21.5,16.1-24.9c3.8,0.6,7.7,1,11.4,1.8c9.2,2.1,17.8,6.1,25.2,11.8c18.1,14,25.1,34.7,31.4,55.8c3,10.1,6.6,19.1,12,28.2c4.4,7.5,9.6,15.4,10.7,24.1c0.8,5.9,1.2,11.8,1.4,17.7c0.1,2.9,0,5.7-0.3,8.6c-0.1,0.8-0.2,1.6-0.4,2.3c-0.1,0-0.2,0.1-0.3,0.1c-1.8-1.3-3.6-2.4-5.4-3.4c-2.9-1.7-5.9-3.1-9-4.3c4.6-5.2,6.1-12.1,9.1-18.4c2.8-5.8-6.2-10.3-9-4.4c-2.9,6.2-4,13.2-9.3,17.9c-0.7,0.6-1.2,1.3-1.4,2c-11.9-1.6-23.2,4-26.8,16.3c-3.9,13.4,4.7,25.5,17.8,28.5c5.5,1.3,12.1,0.2,16.7-3.3c5.3-4.1,3.7-10.5-1.2-14c-5.1-3.6-11.4,3.3-7.1,7.2c-1.2,0.4-2.4,0.6-3.6,0.6c-4,0.2-7.7-1.8-10.5-4.4c-5.5-5.2-3-14.8,2.4-19c5.2-4,13.2-1.9,18.8,0c4.8,1.6,14.6,5.7,16,11.1c0.3,1.3,1,2.2,1.9,2.7c-0.1,2.2,1,4.5,3.3,5.3c0.4,1,0.7,2,0.9,3.1c0.9,3.5,1,7.3,1.3,10.9C487.1,306.9,487,315.3,486.6,323.7z" />
  <path fill="#010101" d="M293.5,178.8h-12c-8.3,0-16.2,3.5-23.3,7.5c-8.3,4.6-16.7,10.1-26.3,11.3c-5.5,0.7-11-0.1-16.6-0.9c0-0.1,0.1-0.1,0.1-0.2c5-8,6.3-18.2,5.7-27.4c-0.6-9.4-4.6-18.8-13.1-23.6c-7.8-4.4-20.7-4.1-25.3,4.9c-3.6,7,0.3,13.7,5.9,18.1c5.1,4,11.7-3.5,6.6-7.5c-1.9-1.5-5.4-3.9-3.2-6.5c2.1-2.5,6.6-2.2,9.3-1.2c6.9,2.6,9.2,9.9,9.9,16.6c0.7,6.9-0.5,14.4-3.7,20.6c-1.2,2.3-2.9,4-4.9,5.2c-0.7,0-1.3,0.1-2,0.1c-1.6,0.1-2.8,0.9-3.5,1.9c-2.9,0.5-5.9,0.5-8.8,0c-7-1.2-15.2-5.4-19.5-11.2c-2.9-3.9-4.1-9.3-5.2-13.9c-1.6-6.9-4.5-25.1,6.7-24.9c6.4,0.1,5.6-9.8-0.8-10c-18.6-0.4-18.5,23.1-15.9,36c0.6,3.1,1.4,6.5,2.5,9.7c-3.8-1-7.8-1.5-11.5-1.7c-10.9-0.6-20.8,3.1-29.3,9.9c-15.1,12.1-26.8,36.8-18,55.7c0.9,1.9,1.9,3.6,3.2,5.2c-8.9,6.7-19.8,18.2-12.7,29c3.5,5.4,11.8-0.2,8.3-5.6c-3.3-5.1,7.2-13.2,11.7-16.4c9.5,6.7,22.4,8.9,32.7,3.5c9.1-4.8,12.7-14.3,13.2-24.1c0.3-5,0-11-3.5-15c-1.5-1.7-3.4-2.8-5.4-3.8c-1-0.5-2.1-0.8-3.2-1.2c-0.4-0.1-0.9-0.4-1.4-0.6c-0.2-0.1-0.4-0.2-0.6-0.3c0,0,0,0-0.1,0c-0.6-0.2-1.3-0.3-2-0.3c-0.6,0-1.2,0.2-1.9,0.3c-3.5,1-4.5,6.2-1.6,8.5c1.8,1.4,4.3,1.7,6.3,2.6c3.8,1.6,3.5,5.4,3.4,9.1c-0.1,6.5-2.4,13.4-8.6,16.3c-10.6,4.9-25-2.1-29.3-12.5c-5.9-14.3,4.2-33.1,15-42.3c5.9-5,13-8.2,20.8-8.3c6.7-0.1,16.9,1.1,21.1,7c1.6,2.4,4.2,2.6,6.2,1.6c5.9,4.1,12.8,6.9,19.9,7.8c5.5,0.7,11.1-0.1,16.1-2.3c8.7,0,17.3,2.3,26.1,2.1c1.6,0,3.2-0.2,4.8-0.5c-0.2,5.7-1.1,11.3-4.4,16.3c-3.5,5.4,5.5,9.8,9,4.4c4.6-7,5.4-15.4,5.5-23.6c3.9-1.5,7.7-3.5,10.8-5.4c7.5-4.7,15.8-10.2,24.9-10.2h12.6C300.7,188.7,299.9,178.8,293.5,178.8z" />
</svg>